<svg width="253" height="327" viewBox="0 0 253 327" fill="none" xmlns="http://www.w3.org/2000/svg">
<g filter="url(#filter0_d_168_291)">
<path d="M110.844 73.543C112.912 69.4645 111.282 64.4817 107.204 62.4135C103.125 60.3453 98.1426 61.975 96.0744 66.0535L82.2576 93.3005C80.1894 97.379 81.8191 102.362 85.8976 104.43C89.9761 106.498 94.9589 104.869 97.0271 100.79L110.844 73.543Z" fill="white"/>
<path d="M219.618 128.702C221.686 124.623 220.056 119.641 215.978 117.572C211.899 115.504 206.916 117.134 204.848 121.212L191.031 148.459C188.963 152.538 190.593 157.521 194.671 159.589C198.75 161.657 203.733 160.027 205.801 155.949L219.618 128.702Z" fill="white"/>
<path d="M136.391 138.758C160.714 151.093 188.518 145.147 198.491 125.479C208.465 105.81 196.833 79.867 172.509 67.5328C148.186 55.1986 120.383 61.1441 110.409 80.8125C100.435 100.481 112.068 126.424 136.391 138.758Z" stroke="#D2DFF0" stroke-width="25" stroke-miterlimit="10"/>
<path d="M188.71 99.5737L137.132 73.419C127.035 68.2985 114.698 72.3333 109.577 82.431L101.608 98.146C96.4877 108.244 100.523 120.581 110.62 125.701L162.198 151.856C172.295 156.976 184.632 152.942 189.753 142.844L197.722 127.129C202.842 117.031 198.808 104.694 188.71 99.5737Z" stroke="#D2DFF0" stroke-width="25" stroke-miterlimit="10"/>
<path d="M136.219 139.098C160.543 151.432 188.346 145.486 198.32 125.818C208.293 106.149 196.661 80.2061 172.338 67.8719C148.014 55.5377 120.211 61.4832 110.237 81.1516C100.264 100.82 111.896 126.763 136.219 139.098Z" fill="#3B3D40"/>
<path d="M188.538 99.9128L136.96 73.7581C126.863 68.6376 114.526 72.6724 109.405 82.7701L101.436 98.4851C96.3158 108.583 100.351 120.92 110.448 126.04L162.026 152.195C172.124 157.315 184.46 153.281 189.581 143.183L197.55 127.468C202.67 117.37 198.636 105.033 188.538 99.9128Z" fill="#3B3D40"/>
<path d="M144.495 157.78L117.078 143.877C115.891 143.275 114.441 143.749 113.839 144.937C113.237 146.124 113.711 147.574 114.898 148.176L142.315 162.079C143.502 162.681 144.952 162.206 145.554 161.019C146.156 159.832 145.682 158.382 144.495 157.78Z" fill="#3B3D40"/>
<path d="M112.257 236.277L71.9799 215.852C69.8796 214.776 68.0571 213.594 66.4721 212.342C43.0399 193.788 64.2368 153.734 66.6319 149.343C67.2923 148.041 71.0251 141.188 82.7708 140.092C90.1986 139.396 99.0795 141.141 107.659 145.492L147.937 165.916C165.097 174.618 174.555 190.459 169.065 201.286C166.173 206.435 142.606 247.249 117.315 238.662C115.668 238.107 113.991 237.324 112.257 236.277Z" fill="#D2DFF0"/>
<path d="M187.808 40.8129L185.775 39.7817L177.534 56.0318L179.568 57.063L187.808 40.8129Z" fill="white"/>
<path d="M182.68 48.4045C187.443 50.8199 193.145 49.1482 195.416 44.6708C197.686 40.1933 195.666 34.6055 190.903 32.1901C186.139 29.7747 180.437 31.4464 178.167 35.9239C175.896 40.4013 177.917 45.9891 182.68 48.4045Z" fill="white"/>
<path d="M77.7332 215.496L71.1778 212.172C69.7691 211.457 68.048 212.02 67.3336 213.429C66.6192 214.838 67.1821 216.559 68.5909 217.273L75.1462 220.597C76.555 221.312 78.2761 220.749 78.9905 219.34C79.7048 217.931 79.1419 216.21 77.7332 215.496Z" fill="#3B3D40"/>
<path d="M112.062 232.904L105.506 229.58C104.098 228.865 102.376 229.428 101.662 230.837C100.948 232.246 101.511 233.967 102.919 234.681L109.475 238.005C110.883 238.72 112.605 238.157 113.319 236.748C114.033 235.339 113.47 233.618 112.062 232.904Z" fill="#3B3D40"/>
<path d="M73.8001 215.049C71.6867 217.868 68.6474 222.291 65.5507 228.155C61.4866 235.86 59.2671 242.404 58.1413 246.149" stroke="#3B3D40" stroke-width="8" stroke-miterlimit="10"/>
<path d="M107.142 233.01C106.116 236.381 104.343 241.447 101.443 247.41C97.6286 255.241 93.6611 260.898 91.3044 264.02" stroke="#3B3D40" stroke-width="8" stroke-miterlimit="10"/>
<path d="M88.5496 255.324C88.5496 255.324 92.5573 259.161 97.8769 257.206C103.196 255.25 107.942 249.651 111.104 255.975C114.266 262.299 99.7631 283.468 101.147 286.244C102.531 289.021 109.723 296.11 104.216 306.66L68.1125 288.352C68.1125 288.352 85.1163 258.247 88.5407 255.319L88.5496 255.324Z" fill="#D2DFF0"/>
<path d="M132.564 103.08C136.095 104.871 140.41 103.459 142.201 99.9277C143.992 96.3959 142.581 92.0811 139.049 90.2901C135.518 88.4992 131.203 89.9104 129.412 93.4421C127.621 96.9739 129.032 101.289 132.564 103.08Z" fill="#D2DFF0"/>
<path d="M167.41 120.75C170.941 122.541 175.256 121.13 177.047 117.598C178.838 114.066 177.427 109.751 173.895 107.96C170.363 106.169 166.048 107.581 164.258 111.112C162.467 114.644 163.878 118.959 167.41 120.75Z" fill="#D2DFF0"/>
<path d="M138.192 112.986C138.74 114.206 140.888 118.614 146.102 121.157C151.235 123.659 155.963 122.716 157.28 122.397" fill="#D2DFF0"/>
<path d="M66.1277 243.954C66.1277 243.954 60.6637 242.988 59.0979 237.541C57.5322 232.094 59.2452 224.957 52.2752 226.143C45.3053 227.329 36.7963 251.538 33.7388 252.062C30.6813 252.586 20.713 250.973 15.4558 261.65L51.5592 279.958C51.5592 279.958 65.7981 248.451 66.1366 243.958L66.1277 243.954Z" fill="#D2DFF0"/>
</g>
<defs>
<filter id="filter0_d_168_291" x="5.45581" y="31.084" width="225.059" height="295.576" filterUnits="userSpaceOnUse" color-interpolation-filters="sRGB">
<feFlood flood-opacity="0" result="BackgroundImageFix"/>
<feColorMatrix in="SourceAlpha" type="matrix" values="0 0 0 0 0 0 0 0 0 0 0 0 0 0 0 0 0 0 127 0" result="hardAlpha"/>
<feOffset dy="10"/>
<feGaussianBlur stdDeviation="5"/>
<feComposite in2="hardAlpha" operator="out"/>
<feColorMatrix type="matrix" values="0 0 0 0 0 0 0 0 0 0 0 0 0 0 0 0 0 0 0.25 0"/>
<feBlend mode="normal" in2="BackgroundImageFix" result="effect1_dropShadow_168_291"/>
<feBlend mode="normal" in="SourceGraphic" in2="effect1_dropShadow_168_291" result="shape"/>
</filter>
</defs>
</svg>
