<svg width="139" height="138" viewBox="0 0 139 138" fill="none" xmlns="http://www.w3.org/2000/svg">
<path d="M16.56 73.0901C16.56 68.5171 12.8529 64.8101 8.28 64.8101C3.70708 64.8101 0 68.5171 0 73.0901V103.64C0 108.213 3.70708 111.92 8.28 111.92C12.8529 111.92 16.56 108.213 16.56 103.64V73.0901Z" fill="white"/>
<path d="M138.52 73.0901C138.52 68.5171 134.813 64.8101 130.24 64.8101C125.667 64.8101 121.96 68.5171 121.96 73.0901V103.64C121.96 108.213 125.667 111.92 130.24 111.92C134.813 111.92 138.52 108.213 138.52 103.64V73.0901Z" fill="white"/>
<path d="M68.84 119.7C96.1118 119.7 118.22 101.823 118.22 79.7701C118.22 57.7174 96.1118 39.8401 68.84 39.8401C41.5682 39.8401 19.46 57.7174 19.46 79.7701C19.46 101.823 41.5682 119.7 68.84 119.7Z" stroke="#D4DFEF" stroke-width="25" stroke-miterlimit="10"/>
<path d="M97.78 61.0901H39.95C28.6282 61.0901 19.45 70.2682 19.45 81.5901V99.2101C19.45 110.532 28.6282 119.71 39.95 119.71H97.78C109.102 119.71 118.28 110.532 118.28 99.2101V81.5901C118.28 70.2682 109.102 61.0901 97.78 61.0901Z" stroke="#D4DFEF" stroke-width="25" stroke-miterlimit="10"/>
<path d="M68.84 120.08C96.1118 120.08 118.22 102.203 118.22 80.15C118.22 58.0972 96.1118 40.22 68.84 40.22C41.5682 40.22 19.46 58.0972 19.46 80.15C19.46 102.203 41.5682 120.08 68.84 120.08Z" fill="#3A3C3F"/>
<path d="M97.78 61.47H39.95C28.6282 61.47 19.45 70.6481 19.45 81.97V99.59C19.45 110.912 28.6282 120.09 39.95 120.09H97.78C109.102 120.09 118.28 110.912 118.28 99.59V81.97C118.28 70.6481 109.102 61.47 97.78 61.47Z" fill="#3A3C3F"/>
<path d="M84.67 133H53.93C52.599 133 51.52 134.079 51.52 135.41C51.52 136.741 52.599 137.82 53.93 137.82H84.67C86.001 137.82 87.08 136.741 87.08 135.41C87.08 134.079 86.001 133 84.67 133Z" fill="#3A3C3F"/>
<path d="M70.4 9.09009H68.12V27.3101H70.4V9.09009Z" fill="white"/>
<path d="M69.26 18.18C74.6006 18.18 78.93 14.1103 78.93 9.09C78.93 4.06973 74.6006 0 69.26 0C63.9194 0 59.59 4.06973 59.59 9.09C59.59 14.1103 63.9194 18.18 69.26 18.18Z" fill="white"/>
<path d="M49.29 89.62C53.2499 89.62 56.46 86.4099 56.46 82.45C56.46 78.4901 53.2499 75.28 49.29 75.28C45.3301 75.28 42.12 78.4901 42.12 82.45C42.12 86.4099 45.3301 89.62 49.29 89.62Z" fill="#D4DFEF"/>
<path d="M88.36 89.62C92.3199 89.62 95.53 86.4099 95.53 82.45C95.53 78.4901 92.3199 75.28 88.36 75.28C84.4001 75.28 81.19 78.4901 81.19 82.45C81.19 86.4099 84.4001 89.62 88.36 89.62Z" fill="#D4DFEF"/>
<path d="M58.79 95.9099C59.83 96.7499 63.74 99.7099 69.54 99.6199C75.25 99.5299 79.04 96.5499 80.07 95.6699" fill="#D4DFEF"/>
</svg>
