<svg width="120" height="120" viewBox="0 0 120 120" fill="none" xmlns="http://www.w3.org/2000/svg">
<g filter="url(#filter0_d_168_325)">
<path d="M62.4069 82.2011C66.1247 85.2712 66.6498 90.7738 63.5797 94.4916C60.5097 98.2095 55.007 98.7346 51.2892 95.6645L24.3051 73.3819C20.5873 70.3118 20.0622 64.8091 23.1322 61.0913C26.2023 57.3735 31.705 56.8484 35.4228 59.9184L62.4069 82.2011Z" fill="#3B3D40"/>
<path d="M81.149 59.789C84.0613 55.9464 89.5373 55.1923 93.3799 58.1046C97.2225 61.017 97.9767 66.493 95.0643 70.3356L73.9263 98.2254C71.0139 102.068 65.5379 102.822 61.6953 99.9098C57.8527 96.9974 57.0986 91.5215 60.011 87.6788L81.149 59.789Z" fill="#3B3D40"/>
<path d="M15.3782 46.8665L23.7939 43.2732C27.5812 41.6561 31.9624 43.4155 33.5795 47.2028L39.5083 61.0886C41.1254 64.876 39.3661 69.2572 35.5787 70.8743L27.1631 74.4675C23.3757 76.0846 18.9945 74.3253 17.3774 70.5379L11.4486 56.6521C9.83149 52.8647 11.5909 48.4836 15.3782 46.8665Z" fill="#D2DFF0"/>
<path d="M59.3626 86.9305C63.977 82.5911 71.2355 82.814 75.5749 87.4283C79.9144 92.0427 79.6915 99.3012 75.0771 103.641C70.4627 107.98 63.2042 107.757 58.8648 103.143C54.5254 98.5284 54.7483 91.2699 59.3626 86.9305Z" fill="#D2DFF0"/>
<path d="M105.354 58.7042C105.051 65.0312 99.6765 69.9146 93.3495 69.6116C87.0224 69.3086 82.139 63.9339 82.442 57.6069C82.745 51.2799 88.1197 46.3964 94.4468 46.6994C100.774 47.0024 105.657 52.3771 105.354 58.7042Z" fill="#D2DFF0"/>
</g>
<defs>
<filter id="filter0_d_168_325" x="0.847717" y="35.6724" width="114.52" height="84.0825" filterUnits="userSpaceOnUse" color-interpolation-filters="sRGB">
<feFlood flood-opacity="0" result="BackgroundImageFix"/>
<feColorMatrix in="SourceAlpha" type="matrix" values="0 0 0 0 0 0 0 0 0 0 0 0 0 0 0 0 0 0 127 0" result="hardAlpha"/>
<feOffset dy="3"/>
<feGaussianBlur stdDeviation="5"/>
<feComposite in2="hardAlpha" operator="out"/>
<feColorMatrix type="matrix" values="0 0 0 0 0 0 0 0 0 0 0 0 0 0 0 0 0 0 0.25 0"/>
<feBlend mode="normal" in2="BackgroundImageFix" result="effect1_dropShadow_168_325"/>
<feBlend mode="normal" in="SourceGraphic" in2="effect1_dropShadow_168_325" result="shape"/>
</filter>
</defs>
</svg>
