<svg width="151" height="64" viewBox="0 0 151 64" fill="none" xmlns="http://www.w3.org/2000/svg">
<path d="M3.61438 46.544V26.9118H0V21.7515H3.61438V19.5757C3.61438 14.4583 6.15518 11.1016 11.5231 11.1016C12.6611 11.1016 14.0997 11.2018 14.7152 11.395V16.813C14.3358 16.7486 13.8205 16.6913 13.2694 16.6913C11.2439 16.6913 10.4853 17.4357 10.4853 20.091V21.7515H14.8225V26.9118H10.4853V46.544H3.62154H3.61438Z" fill="white"/>
<path d="M18.5942 46.5441V11.5812H25.458V46.5441H18.5942Z" fill="white"/>
<path d="M64 64C81.6731 64 96 49.6731 96 32C96 14.3269 81.6731 0 64 0C46.3269 0 32 14.3269 32 32C32 49.6731 46.3269 64 64 64Z" fill="url(#paint0_radial_166_232)"/>
<path d="M50.358 38.9145L47.7815 46.544H40.7603L51.9756 13.5208H60.9435L72.6384 46.544H65.1305L62.4179 38.9145H50.3509H50.358ZM60.8791 33.067C58.5316 26.0959 57.0429 21.6442 56.2413 18.6739H56.1912C55.3752 21.9305 53.7291 27.1123 51.8467 33.067H60.872H60.8791Z" fill="white"/>
<path d="M84.0184 13.5208V46.544H76.8755V13.5208H84.0184Z" fill="white"/>
<path d="M108.539 39.0931C109.061 41.0685 110.672 42.1779 113.234 42.1779C115.796 42.1779 116.691 41.2689 116.691 39.7659C116.691 38.177 115.625 37.5472 112.075 36.6812C104.001 34.6915 102.677 32.1865 102.677 28.6937C102.677 25.201 105.254 21.1859 112.733 21.1859C120.212 21.1859 122.796 25.2941 123.011 28.6508H116.483C116.262 27.7347 115.653 26.0026 112.425 26.0026C110.156 26.0026 109.419 27.0046 109.419 28.1212C109.419 29.3522 110.192 29.9534 114.215 30.891C122.488 32.8163 123.655 35.6505 123.655 39.2864C123.655 43.3946 120.534 47.1307 112.976 47.1307C105.418 47.1307 102.341 43.4948 101.797 39.1003H108.539V39.0931Z" fill="white"/>
<path d="M134.82 11.5811V24.6787C135.908 23.0755 137.919 21.1788 141.92 21.1788C146.544 21.1788 150.222 23.9129 150.222 30.6407V46.5439H143.402V31.6641C143.402 28.4434 142.256 26.7257 139.379 26.7257C135.564 26.7257 134.813 29.5599 134.813 33.389V46.5439H127.949V11.5811H134.813H134.82Z" fill="white"/>
<defs>
<radialGradient id="paint0_radial_166_232" cx="0" cy="0" r="1" gradientUnits="userSpaceOnUse" gradientTransform="translate(64 32) scale(32.0711)">
<stop offset="0.07" stop-color="#1B2642"/>
<stop offset="0.42" stop-color="#1B2642"/>
<stop offset="0.86" stop-color="#1B2642"/>
<stop offset="0.88" stop-color="#233C57"/>
<stop offset="0.9" stop-color="#2B506A"/>
<stop offset="0.92" stop-color="#2E5871"/>
<stop offset="0.93" stop-color="#35738E"/>
<stop offset="0.94" stop-color="#3C8EAC"/>
<stop offset="0.95" stop-color="#42A4C4"/>
<stop offset="0.97" stop-color="#46B4D4"/>
<stop offset="0.98" stop-color="#49BDDE"/>
<stop offset="1" stop-color="#4AC0E2"/>
</radialGradient>
</defs>
</svg>
