<svg width="27" height="29" viewBox="0 0 27 29" fill="none" xmlns="http://www.w3.org/2000/svg">
<path d="M2.3249 11.4832L13.0887 1.63306C13.4777 1.27704 14.0764 1.28433 14.4567 1.64971L24.6929 11.4854C24.8891 11.6739 25 11.9343 25 12.2064V26C25 26.5523 24.5523 27 24 27H18.7073C18.155 27 17.7073 26.5523 17.7073 26V19.7561C17.7073 19.2038 17.2596 18.7561 16.7073 18.7561H10.8537C10.3014 18.7561 9.85366 19.2038 9.85366 19.7561V26C9.85366 26.5523 9.40594 27 8.85366 27H3C2.44772 27 2 26.5523 2 26V12.2209C2 11.9403 2.11789 11.6726 2.3249 11.4832Z" stroke="white" stroke-width="2.3"/>
</svg>
